<svg width="9" height="9" viewBox="0 0 9 9" fill="none" xmlns="http://www.w3.org/2000/svg">
<path fill-rule="evenodd" clip-rule="evenodd" d="M5.04604 3.72855V4.29356C5.16436 4.11332 5.32745 3.9669 5.51935 3.86862C5.71124 3.77034 5.92537 3.72356 6.14077 3.73288C7.29109 3.73288 7.5398 4.45204 7.5398 5.38761V7.29239H6.47438V5.60369C6.47438 5.20083 6.39314 4.68277 5.76587 4.68277C5.15758 4.68277 5.0537 5.12126 5.0537 5.57373V7.29239H3.99161V3.72855H5.04604ZM3.27811 2.83293C3.27798 2.93847 3.24669 3.04163 3.18817 3.12946C3.12965 3.2173 3.04651 3.28591 2.94916 3.32668C2.85185 3.36713 2.7447 3.37771 2.64136 3.35708C2.53802 3.33645 2.44315 3.28553 2.36884 3.21082C2.29438 3.13606 2.24369 3.04095 2.22314 2.93746C2.20259 2.83397 2.2131 2.72671 2.25334 2.62917C2.29359 2.53164 2.36177 2.44818 2.44932 2.38929C2.53688 2.3304 2.63988 2.29872 2.7454 2.29822C2.81552 2.29822 2.88496 2.31206 2.94972 2.33896C3.01448 2.36585 3.0733 2.40527 3.12279 2.45495C3.17228 2.50463 3.21148 2.56359 3.23813 2.62845C3.26479 2.69332 3.27837 2.7628 3.27811 2.83293Z" fill="white"/>
<path d="M3.27831 3.73273H2.21289V7.29224H3.27831V3.73273Z" fill="white"/>
</svg>
