<svg width="21" height="21" viewBox="0 0 21 21" fill="none" xmlns="http://www.w3.org/2000/svg">
<path d="M6.52148 9.96616V8.6286C6.52148 8.54943 6.52148 8.51777 6.62482 8.51777C7.51069 8.51777 8.23072 8.46526 8.58823 8.67611C8.94658 8.88611 8.96158 9.17612 8.96741 9.26279C8.97325 9.34946 8.97075 9.47364 8.80407 9.77615C8.6374 10.0787 7.89154 10.0845 7.35318 10.0845H6.64066C6.55315 10.0845 6.52148 10.0528 6.52148 9.96616ZM8.97658 11.3679C9.05912 11.4732 9.11804 11.5951 9.14933 11.7252C9.18063 11.8554 9.18357 11.9907 9.15796 12.1221C9.13235 12.2534 9.07879 12.3778 9.0009 12.4866C8.92302 12.5955 8.82264 12.6863 8.70657 12.7529C8.53607 12.8247 8.35318 12.8623 8.16822 12.8638H6.63232C6.55315 12.8638 6.52148 12.8638 6.52148 12.7613V11.1779C6.52148 11.0987 6.52148 11.067 6.62482 11.067H7.6457C8.27905 11.067 8.6749 11.012 8.97658 11.3679Z" fill="white"/>
<path d="M14.5493 10.6347C14.5068 10.5346 14.4423 10.4453 14.3607 10.3735C14.279 10.3016 14.1823 10.2491 14.0776 10.2197C13.8683 10.1625 13.6492 10.1504 13.4349 10.1842C13.2205 10.2179 13.0158 10.2968 12.8342 10.4155C12.6532 10.5984 12.5363 10.8349 12.5008 11.0897C12.5008 11.1789 12.5008 11.1956 12.6067 11.1956H14.5818C14.6793 11.1956 14.6793 11.1956 14.6709 11.0731C14.6616 10.9199 14.6207 10.7705 14.5493 10.6347ZM14.5493 10.6347C14.5068 10.5346 14.4415 10.4453 14.3599 10.3735C14.2782 10.3016 14.1823 10.2491 14.0776 10.2197C13.8683 10.1625 13.6492 10.1504 13.4349 10.1842C13.2205 10.2179 13.0158 10.2968 12.8342 10.4155C12.6532 10.5984 12.5354 10.8349 12.5 11.0897C12.5 11.1789 12.5 11.1956 12.6058 11.1956H14.5818C14.6793 11.1956 14.6793 11.1956 14.6709 11.0731C14.6616 10.9199 14.619 10.7705 14.5476 10.6347M15.4751 2.79358H5.72474C4.86275 2.79358 4.03607 3.136 3.42655 3.74552C2.81703 4.35504 2.47461 5.18172 2.47461 6.04371V15.7941C2.47461 16.6561 2.81703 17.4828 3.42655 18.0923C4.03607 18.7018 4.86275 19.0442 5.72474 19.0442H15.4751C16.3371 19.0442 17.1638 18.7018 17.7733 18.0923C18.3828 17.4828 18.7252 16.6561 18.7252 15.7941V6.04371C18.7252 5.18172 18.3828 4.35504 17.7733 3.74552C17.1638 3.136 16.3371 2.79358 15.4751 2.79358ZM12.29 7.96878C12.29 7.90461 12.29 7.87961 12.3633 7.87961H14.9959V8.56297C14.9959 8.56297 14.9984 8.61131 14.9551 8.61131H12.4042C12.29 8.61131 12.29 8.61131 12.29 8.49797V7.96878ZM9.8524 13.9415C8.85236 14.4857 7.17146 14.2665 5.18055 14.2665V7.53043H8.35734C9.16987 7.53043 10.1366 7.73377 10.3966 8.59464C10.5316 8.97064 10.5234 9.38319 10.3735 9.75352C10.2236 10.1238 9.94258 10.426 9.58406 10.6022C9.91453 10.7245 10.203 10.9389 10.4155 11.2201C10.6279 11.5012 10.7553 11.8373 10.7827 12.1887C10.81 12.54 10.7362 12.8918 10.5698 13.2024C10.4035 13.5131 10.1516 13.7695 9.84407 13.9415H9.8524ZM15.906 12.0239H12.6558C12.5667 12.0239 12.485 12.0723 12.5008 12.1864C12.5983 12.6656 12.8175 13.1698 13.3142 13.2432C13.5765 13.3212 13.8573 13.3092 14.112 13.2091C14.3666 13.1089 14.5804 12.9264 14.7193 12.6906C14.7193 12.6906 14.7601 12.6415 14.7843 12.6415H15.841C15.841 12.6415 15.906 12.6415 15.8893 12.6981C15.7779 13.0137 15.613 13.3077 15.4018 13.5673C15.1194 13.8371 14.7786 14.0382 14.4059 14.1549C14.0332 14.2716 13.6386 14.3009 13.2527 14.2405C12.8668 14.18 12.5001 14.0315 12.181 13.8063C11.8618 13.5812 11.5988 13.2855 11.4125 12.9423C11.2978 12.7134 11.2264 12.4654 11.2016 12.2106C11.0567 11.5703 11.1675 10.8986 11.5104 10.3387C11.8533 9.7788 12.4012 9.3749 13.0375 9.213C14.8818 8.81465 16.0518 10.0822 16.0518 11.8698C16.0545 11.8907 16.0524 11.9119 16.0457 11.9319C16.0389 11.9518 16.0276 11.9699 16.0127 11.9848C15.9978 11.9997 15.9797 12.011 15.9597 12.0178C15.9398 12.0246 15.9185 12.0267 15.8976 12.0239H15.906ZM14.0859 10.2197C13.8768 10.1617 13.6576 10.1498 13.4434 10.1847C13.2292 10.218 13.0375 10.2589 12.8425 10.4155C12.6475 10.5714 12.5442 10.8347 12.5092 11.0897C12.5092 11.1789 12.5092 11.1956 12.615 11.1956H14.5818C14.6793 11.1956 14.6793 11.1956 14.6709 11.0731C14.6616 10.9199 14.6207 10.7705 14.5493 10.6347C14.5068 10.5346 14.4423 10.4453 14.3607 10.3735C14.279 10.3016 14.1823 10.2491 14.0776 10.2197H14.0859Z" fill="white"/>
</svg>
