<svg width="31" height="31" viewBox="0 0 31 31" fill="none" xmlns="http://www.w3.org/2000/svg">
<path d="M14.9213 20.2632C14.9213 19.1461 14.6194 18.1801 14.0005 17.3951C13.0646 16.2177 11.2381 16.0667 10.1814 16.3082C9.74367 13.8175 11.857 10.6475 14.5892 9.28897L12.491 6.3454C8.37 8.30778 4.30939 12.8062 5.00377 18.4971C5.44153 22.0897 7.52467 24.4597 10.4682 24.4597C11.7513 24.4597 12.8231 24.0823 13.6684 23.3275C14.5138 22.5728 14.9213 21.5463 14.9213 20.2632ZM27.073 20.2632C27.073 19.1461 26.7711 18.1801 26.1522 17.3951C25.2012 16.2177 23.3898 16.0667 22.3331 16.3082C21.8953 13.8175 24.0087 10.6475 26.7409 9.28897L24.6427 6.3454C20.5217 8.30778 16.4761 12.8062 17.1705 18.4971C17.6083 22.0897 19.6763 24.4597 22.6199 24.4597C23.903 24.4597 24.9748 24.0823 25.8201 23.3275C26.6654 22.5728 27.073 21.5463 27.073 20.2632Z" fill="#E59500"/>
</svg>
