<svg width="7" height="8" viewBox="0 0 7 8" fill="none" xmlns="http://www.w3.org/2000/svg">
<g clip-path="url(#clip0_374_1507)">
<path d="M6.40455 3.7956C6.405 4.16105 6.33304 4.52296 6.19282 4.86044C6.05259 5.19791 5.84689 5.50426 5.58759 5.76178C5.33038 6.0185 5.02511 6.22202 4.68923 6.36072C4.35334 6.49943 3.99341 6.57059 3.63001 6.57014C2.09763 6.57014 0.855471 5.32798 0.855471 3.7956C0.854473 3.08417 1.12775 2.39973 1.61847 1.88463C1.87737 1.61141 2.1893 1.39389 2.53518 1.2454C2.88106 1.09691 3.25361 1.02057 3.63001 1.02106C3.99341 1.02061 4.35334 1.09177 4.68923 1.23047C5.02511 1.36918 5.33038 1.5727 5.58759 1.82942C5.84689 2.08694 6.05259 2.39328 6.19282 2.73076C6.33304 3.06824 6.405 3.43015 6.40455 3.7956Z" stroke="white" stroke-width="0.665889" stroke-linecap="round" stroke-linejoin="round"/>
<path d="M6.40564 3.79484C6.00084 3.79484 4.88409 3.64224 3.88456 4.08104C2.79874 4.55784 2.01258 5.29753 1.66992 5.75741" stroke="white" stroke-width="0.665889" stroke-linecap="round" stroke-linejoin="round"/>
<path d="M2.5918 1.22266C3.02601 1.62344 3.97352 2.64378 4.32588 3.65676C4.67825 4.66974 4.80865 5.91523 4.88912 6.26968" stroke="white" stroke-width="0.665889" stroke-linecap="round" stroke-linejoin="round"/>
<path d="M0.878906 3.44822C1.40302 3.47985 2.79043 3.50829 3.67828 3.12915C4.56613 2.75001 5.3301 2.05263 5.59216 1.83136M1.06563 4.85117C1.31015 5.44294 1.75107 5.93241 2.31418 6.23719" stroke="white" stroke-width="0.665889" stroke-linecap="round" stroke-linejoin="round"/>
<path d="M0.855471 3.7956C0.854473 3.08417 1.12775 2.39973 1.61847 1.88463C1.87737 1.61141 2.1893 1.39389 2.53518 1.2454C2.88106 1.09691 3.25361 1.02057 3.63001 1.02106M4.73983 1.2519C5.05585 1.39004 5.34335 1.5859 5.58759 1.82942C5.84689 2.08694 6.05259 2.39328 6.19282 2.73076C6.33304 3.06824 6.405 3.43015 6.40455 3.7956C6.40455 4.13714 6.34282 4.4644 6.22975 4.76669M3.63001 6.57014C3.99341 6.57059 4.35334 6.49943 4.68923 6.36072C5.02511 6.22202 5.33038 6.0185 5.58759 5.76178" stroke="white" stroke-width="0.665889" stroke-linecap="round" stroke-linejoin="round"/>
</g>
<defs>
<clipPath id="clip0_374_1507">
<rect width="6.65889" height="6.65889" fill="white" transform="translate(0.300781 0.46582)"/>
</clipPath>
</defs>
</svg>
