<svg width="20" height="20" viewBox="0 0 20 20" fill="none" xmlns="http://www.w3.org/2000/svg">
<path d="M11.7496 9.89555C11.737 10.1726 11.6467 10.4402 11.4876 10.6674C11.328 10.9021 11.0983 11.0802 10.8313 11.1765C10.567 11.284 10.2762 11.3083 9.99768 11.2461C9.71785 11.1866 9.46241 11.0443 9.26459 10.8376C9.06879 10.6214 8.94007 10.353 8.89409 10.065C8.84275 9.78591 8.87783 9.49783 8.99464 9.23926C9.10864 8.98038 9.29547 8.75951 9.53455 8.60592C9.77759 8.45551 10.0586 8.37555 10.3452 8.37476C10.7228 8.39534 11.0783 8.55842 11.3411 8.82996C11.4771 8.9712 11.5833 9.13829 11.6534 9.32133C11.7236 9.50437 11.7563 9.69963 11.7496 9.89555Z" fill="white"/>
<path d="M14.476 6.54512C14.386 6.32258 14.2522 6.12042 14.0825 5.95069C13.9127 5.78095 13.7106 5.64711 13.488 5.55712C13.2638 5.47029 13.0262 5.4234 12.7858 5.41858H7.90756C7.42502 5.42046 6.96277 5.61298 6.62155 5.95419C6.28034 6.29541 6.08781 6.75766 6.08594 7.2402V12.2111C6.08663 12.4509 6.13469 12.6882 6.22734 12.9093C6.31999 13.1305 6.45542 13.3312 6.62585 13.4999C6.96695 13.8383 7.42708 14.0296 7.90756 14.0327H12.7858C13.1451 14.0304 13.4959 13.9227 13.7946 13.7231C14.0934 13.5234 14.327 13.2405 14.4665 12.9093C14.559 12.6881 14.6069 12.4508 14.6074 12.2111V7.24733C14.6049 7.00739 14.5604 6.76974 14.476 6.54512ZM12.5467 10.8526C12.4309 11.1418 12.2575 11.4044 12.0369 11.6245C11.8152 11.8485 11.5532 12.0282 11.265 12.1572C10.9529 12.2882 10.6172 12.3538 10.2787 12.3499C9.94019 12.3461 9.60607 12.273 9.29694 12.1351C8.79969 11.9112 8.39183 11.5272 8.13853 11.0443C7.88523 10.5613 7.80113 10.0075 7.89965 9.47112C7.99398 8.99757 8.22168 8.56083 8.55594 8.21237C8.89633 7.8712 9.32937 7.63744 9.80136 7.54006C10.2734 7.44267 10.7636 7.48596 11.2112 7.66454C11.6601 7.84662 12.0424 8.1617 12.3069 8.56783C12.5741 8.95942 12.7192 9.42141 12.7241 9.89545C12.7351 10.224 12.6742 10.5502 12.5467 10.8526ZM13.3954 7.03912C13.4028 7.10082 13.3971 7.16339 13.3786 7.22271C13.3601 7.28203 13.3292 7.33675 13.288 7.38325C13.2467 7.42975 13.1961 7.46698 13.1394 7.49247C13.0828 7.51797 13.0213 7.53115 12.9592 7.53115C12.897 7.53115 12.8356 7.51797 12.7789 7.49247C12.7223 7.46698 12.6716 7.42975 12.6304 7.38325C12.5892 7.33675 12.5583 7.28203 12.5398 7.22271C12.5213 7.16339 12.5155 7.10082 12.523 7.03912C12.5137 6.97644 12.518 6.9125 12.5357 6.85164C12.5534 6.79079 12.5839 6.73446 12.6253 6.68649C12.6667 6.63852 12.718 6.60003 12.7756 6.57365C12.8332 6.54727 12.8958 6.53361 12.9592 6.53361C13.0226 6.53361 13.0852 6.54727 13.1428 6.57365C13.2004 6.60003 13.2516 6.63852 13.293 6.68649C13.3344 6.73446 13.365 6.79079 13.3827 6.85164C13.4003 6.9125 13.4047 6.97644 13.3954 7.03912Z" fill="white"/>
<path d="M14.166 1.99182H6.44727C5.4237 1.99182 4.44205 2.39843 3.71828 3.12221C2.9945 3.84598 2.58789 4.82763 2.58789 5.8512V13.5699C2.58789 14.0768 2.68772 14.5786 2.88167 15.0469C3.07562 15.5151 3.3599 15.9406 3.71828 16.2989C4.44205 17.0227 5.4237 17.4293 6.44727 17.4293H14.166C14.6728 17.4293 15.1747 17.3295 15.6429 17.1355C16.1112 16.9416 16.5366 16.6573 16.895 16.2989C17.2534 15.9406 17.5377 15.5151 17.7316 15.0469C17.9256 14.5786 18.0254 14.0768 18.0254 13.5699V5.8512C18.0254 5.34438 17.9256 4.84252 17.7316 4.37428C17.5377 3.90604 17.2534 3.48058 16.895 3.12221C16.5366 2.76383 16.1112 2.47955 15.6429 2.2856C15.1747 2.09165 14.6728 1.99182 14.166 1.99182ZM15.8024 12.1347C15.8103 12.5384 15.7335 12.9414 15.5783 13.315C15.2652 14.065 14.669 14.6612 13.919 14.9744C13.5446 15.1295 13.1432 15.2055 12.7378 15.1984H7.99102C7.58628 15.2042 7.18454 15.1283 6.80985 14.9752C6.43867 14.8191 6.10066 14.5937 5.81393 14.3109C5.52996 14.0254 5.30459 13.6871 5.15052 13.315C4.9871 12.9427 4.90298 12.5405 4.90352 12.1339V7.34982C4.89796 6.94504 4.97416 6.54329 5.12756 6.16865C5.43374 5.41557 6.02459 4.81363 6.77185 4.49349C7.16003 4.34256 7.57474 4.27174 7.99102 4.28528H12.7766C13.1779 4.2816 13.5758 4.35822 13.9469 4.51063C14.3181 4.66304 14.655 4.88816 14.9379 5.17274C15.2205 5.45932 15.4453 5.79815 15.6013 6.16865C15.7557 6.54311 15.8325 6.94449 15.8253 7.34982L15.8024 12.1347Z" fill="white"/>
</svg>
