<svg width="9" height="9" viewBox="0 0 9 9" fill="none" xmlns="http://www.w3.org/2000/svg">
<g clip-path="url(#clip0_374_1519)">
<path fill-rule="evenodd" clip-rule="evenodd" d="M3.07941 1.04962C2.48337 1.04962 1.91174 1.2864 1.49027 1.70786C1.06881 2.12933 0.832031 2.70096 0.832031 3.297V6.2935C0.832031 6.88954 1.06881 7.46117 1.49027 7.88264C1.91174 8.3041 2.48337 8.54088 3.07941 8.54088H6.07591C6.67195 8.54088 7.24358 8.3041 7.66505 7.88264C8.08651 7.46117 8.32329 6.88954 8.32329 6.2935V3.297C8.32329 2.70096 8.08651 2.12933 7.66505 1.70786C7.24358 1.2864 6.67195 1.04962 6.07591 1.04962H3.07941ZM1.33145 3.297C1.33145 2.33146 2.11387 1.54904 3.07941 1.54904H6.07591C7.04145 1.54904 7.82387 2.33146 7.82387 3.297V6.2935C7.82387 7.25904 7.04145 8.04146 6.07591 8.04146H3.07941C2.61582 8.04146 2.17122 7.8573 1.84341 7.52949C1.51561 7.20169 1.33145 6.75709 1.33145 6.2935V3.297ZM7.07474 2.88082C7.07474 2.9912 7.0309 3.09705 6.95285 3.1751C6.8748 3.25315 6.76894 3.297 6.65856 3.297C6.54819 3.297 6.44233 3.25315 6.36428 3.1751C6.28623 3.09705 6.24238 2.9912 6.24238 2.88082C6.24238 2.77044 6.28623 2.66458 6.36428 2.58653C6.44233 2.50848 6.54819 2.46464 6.65856 2.46464C6.76894 2.46464 6.8748 2.50848 6.95285 2.58653C7.0309 2.66458 7.07474 2.77044 7.07474 2.88082ZM4.57766 3.38023C4.39184 3.38023 4.20783 3.41683 4.03616 3.48795C3.86448 3.55906 3.70849 3.66329 3.57709 3.79468C3.4457 3.92608 3.34147 4.08207 3.27036 4.25375C3.19924 4.42542 3.16264 4.60943 3.16264 4.79525C3.16264 4.98107 3.19924 5.16507 3.27036 5.33675C3.34147 5.50843 3.4457 5.66442 3.57709 5.79582C3.70849 5.92721 3.86448 6.03144 4.03616 6.10255C4.20783 6.17366 4.39184 6.21026 4.57766 6.21026C4.95294 6.21026 5.31286 6.06118 5.57823 5.79582C5.84359 5.53045 5.99267 5.17053 5.99267 4.79525C5.99267 4.41996 5.84359 4.06005 5.57823 3.79468C5.31286 3.52932 4.95294 3.38023 4.57766 3.38023ZM2.66323 4.79525C2.66323 4.28751 2.86493 3.80057 3.22395 3.44154C3.58298 3.08252 4.06992 2.88082 4.57766 2.88082C5.0854 2.88082 5.57234 3.08252 5.93137 3.44154C6.29039 3.80057 6.49209 4.28751 6.49209 4.79525C6.49209 5.30299 6.29039 5.78993 5.93137 6.14896C5.57234 6.50798 5.0854 6.70968 4.57766 6.70968C4.06992 6.70968 3.58298 6.50798 3.22395 6.14896C2.86493 5.78993 2.66323 5.30299 2.66323 4.79525Z" fill="white"/>
</g>
<defs>
<clipPath id="clip0_374_1519">
<rect width="7.99067" height="7.99067" fill="white" transform="translate(0.580078 0.799927)"/>
</clipPath>
</defs>
</svg>
