<svg width="22" height="22" viewBox="0 0 22 22" fill="none" xmlns="http://www.w3.org/2000/svg">
<path d="M14.3906 2.17939H5.21184C4.69166 2.17892 4.17655 2.28152 3.69626 2.48126C3.21597 2.68101 2.78002 2.97394 2.41359 3.34314C2.04858 3.71115 1.76036 4.14805 1.56569 4.62843C1.37101 5.10881 1.27376 5.62309 1.27959 6.14139V15.2799C1.27327 15.7982 1.3703 16.3127 1.56501 16.7931C1.75971 17.2736 2.04818 17.7104 2.41359 18.0781C2.77991 18.4472 3.21573 18.7401 3.69586 18.9398C4.17599 19.1396 4.69094 19.2422 5.21096 19.2419H9.37859V13.1466H7.78609C7.68751 13.146 7.59313 13.1066 7.52326 13.0371C7.45339 12.9675 7.41361 12.8733 7.41246 12.7748V10.8183C7.41234 10.768 7.42219 10.7182 7.44143 10.6717C7.46067 10.6253 7.48892 10.5831 7.52456 10.5476C7.56019 10.5121 7.6025 10.4841 7.64904 10.4651C7.69558 10.446 7.74543 10.4364 7.79571 10.4368H9.37859V8.52926C9.3342 8.07844 9.38923 7.62337 9.53981 7.19613C9.69039 6.76889 9.93284 6.37988 10.2501 6.05651C10.5676 5.73168 10.9522 5.48002 11.377 5.31908C11.8018 5.15813 12.2566 5.09178 12.7097 5.12464H14.332C14.3816 5.12498 14.4307 5.13514 14.4764 5.15453C14.5221 5.17392 14.5635 5.20216 14.5982 5.23762C14.6329 5.27308 14.6603 5.31506 14.6787 5.36115C14.6971 5.40723 14.7063 5.45651 14.7056 5.50614V7.15989C14.7056 7.20883 14.6959 7.25729 14.6771 7.30247C14.6583 7.34765 14.6307 7.38867 14.596 7.42316C14.5613 7.45764 14.5201 7.48491 14.4747 7.5034C14.4294 7.52189 14.3809 7.53123 14.332 7.53089H13.3493C12.2678 7.53089 12.0613 8.04014 12.0613 8.78301V10.4271H14.4203C14.4735 10.4269 14.5261 10.4379 14.5747 10.4596C14.6233 10.4812 14.6667 10.513 14.702 10.5527C14.7374 10.5925 14.7639 10.6393 14.7797 10.69C14.7956 10.7408 14.8004 10.7943 14.794 10.8471L14.5577 12.8045C14.5481 12.8965 14.5045 12.9817 14.4354 13.0432C14.3662 13.1047 14.2766 13.1382 14.1841 13.137H12.071V19.2323H14.4107C14.9307 19.2326 15.4457 19.13 15.9258 18.9302C16.4059 18.7305 16.8418 18.4376 17.2081 18.0685C17.5732 17.7004 17.8615 17.2634 18.0562 16.7828C18.2508 16.3023 18.348 15.7878 18.3421 15.2694V6.14139C18.3489 5.62129 18.2515 5.1051 18.0555 4.62329C17.8595 4.14148 17.569 3.70381 17.2011 3.33614C16.8326 2.96674 16.3944 2.67425 15.9119 2.47567C15.4295 2.27709 14.9123 2.17638 14.3906 2.17939Z" fill="white"/>
</svg>
