<svg width="22" height="22" viewBox="0 0 22 22" fill="none" xmlns="http://www.w3.org/2000/svg">
<path d="M17.8226 2.71022H4.16876C4.01611 2.70951 3.86482 2.73906 3.72365 2.79715C3.58248 2.85524 3.45422 2.94073 3.34628 3.04867C3.23834 3.15662 3.15285 3.28488 3.09476 3.42605C3.03667 3.56722 3.00712 3.7185 3.00782 3.87115V17.5499C3.00782 18.1686 3.5234 18.7108 4.16876 18.7108H17.7693C17.922 18.7117 18.0734 18.6822 18.2147 18.6242C18.3559 18.5661 18.4843 18.4807 18.5924 18.3727C18.7004 18.2648 18.786 18.1365 18.8441 17.9952C18.9023 17.854 18.9318 17.7026 18.9311 17.5499V3.84537C18.9836 3.22668 18.4671 2.71022 17.8226 2.71022ZM7.73068 16.3108H5.38303V8.69712H7.73157L7.73068 16.3108ZM6.54396 7.6393C6.36409 7.64024 6.18581 7.60549 6.01945 7.53707C5.8531 7.46864 5.70197 7.36789 5.57481 7.24065C5.44766 7.11342 5.34701 6.96222 5.27869 6.79582C5.21037 6.62942 5.17574 6.45112 5.1768 6.27125C5.1768 5.52366 5.79549 4.90408 6.54396 4.90408C7.29244 4.90408 7.91291 5.52366 7.91291 6.27125C7.91291 7.01883 7.344 7.6393 6.54396 7.6393ZM16.635 16.3108H14.2865V12.6199C14.2865 11.7426 14.2607 10.5816 13.0482 10.5816C11.8091 10.5816 11.6286 11.5621 11.6286 12.5426V16.3108H9.28007V8.69712H11.5771V9.75494H11.6028C11.938 9.13625 12.6873 8.51667 13.8483 8.51667C16.2483 8.51667 16.6866 10.0652 16.6866 12.1817V16.3108H16.635Z" fill="white"/>
</svg>
