<svg width="19" height="18" viewBox="0 0 19 18" fill="none" xmlns="http://www.w3.org/2000/svg">
<mask id="mask0_374_1350" style="mask-type:luminance" maskUnits="userSpaceOnUse" x="1" y="0" width="18" height="18">
<path d="M16.8669 8.71079C16.8681 9.6621 16.6807 10.6042 16.3157 11.4827C15.9507 12.3612 15.4152 13.1587 14.7402 13.829C14.0707 14.4973 13.276 15.0271 12.4017 15.3882C11.5273 15.7492 10.5904 15.9345 9.64439 15.9333C5.6554 15.9333 2.42188 12.6998 2.42188 8.71079C2.41928 6.85885 3.13066 5.07717 4.40807 3.73629C5.08201 3.02504 5.89403 2.45881 6.7944 2.07228C7.69477 1.68574 8.66455 1.48702 9.64439 1.48829C10.5904 1.48712 11.5273 1.67236 12.4017 2.03342C13.276 2.39448 14.0707 2.92429 14.7402 3.59256C15.4152 4.26292 15.9507 5.06038 16.3157 5.93887C16.6807 6.81737 16.8681 7.75948 16.8669 8.71079Z" fill="white" stroke="white" stroke-width="2.66677" stroke-linecap="round" stroke-linejoin="round"/>
<path d="M16.8668 8.71077C15.813 8.71077 12.906 8.31353 10.3041 9.45577C7.47754 10.697 5.43104 12.6225 4.53906 13.8196" stroke="black" stroke-width="2.66677" stroke-linecap="round" stroke-linejoin="round"/>
<path d="M6.93555 2.01282C8.06587 3.05611 10.5324 5.71218 11.4496 8.34912C12.3669 10.9861 12.7063 14.2282 12.9158 15.1509" stroke="black" stroke-width="2.66677" stroke-linecap="round" stroke-linejoin="round"/>
<path d="M2.47656 7.80779C3.84089 7.89013 7.45251 7.96416 9.76371 6.9772C12.0749 5.99025 14.0636 4.17487 14.7458 3.59888" stroke="black" stroke-width="2.66677" stroke-linecap="round" stroke-linejoin="round"/>
<path d="M2.96357 11.46C3.60009 13.0005 4.74786 14.2746 6.2137 15.068M2.42188 8.71079C2.41928 6.85885 3.13066 5.07717 4.40807 3.73629C5.08201 3.02504 5.89403 2.45881 6.7944 2.07228C7.69477 1.68574 8.66455 1.48702 9.64439 1.48829M12.5334 2.0892C13.356 2.4488 14.1044 2.95863 14.7402 3.59256C15.4152 4.26292 15.9507 5.06038 16.3157 5.93887C16.6807 6.81737 16.8681 7.75948 16.8669 8.71079C16.8669 9.59988 16.7062 10.4518 16.4119 11.2387M9.64439 15.9333C10.5904 15.9345 11.5273 15.7492 12.4017 15.3882C13.276 15.0271 14.0707 14.4973 14.7402 13.829" stroke="white" stroke-width="2.66677" stroke-linecap="round" stroke-linejoin="round"/>
</mask>
<g mask="url(#mask0_374_1350)">
<path d="M0.976562 0.043335H18.3106V17.3773H0.976562V0.043335Z" fill="white"/>
</g>
</svg>
