<svg width="24" height="19" viewBox="0 0 24 19" fill="none" xmlns="http://www.w3.org/2000/svg">
<path d="M10.9213 14.2632C10.9213 13.1461 10.6194 12.1801 10.0005 11.3951C9.06462 10.2177 7.23809 10.0667 6.18143 10.3082C5.74367 7.81754 7.857 4.64754 10.5892 3.28897L8.491 0.345398C4.37 2.30778 0.309386 6.80615 1.00377 12.4971C1.44153 16.0897 3.52467 18.4597 6.46824 18.4597C7.75133 18.4597 8.82309 18.0823 9.66843 17.3275C10.5138 16.5728 10.9213 15.5463 10.9213 14.2632ZM23.073 14.2632C23.073 13.1461 22.7711 12.1801 22.1522 11.3951C21.2012 10.2177 19.3898 10.0667 18.3331 10.3082C17.8953 7.81754 20.0087 4.64754 22.7409 3.28897L20.6427 0.345398C16.5217 2.30778 12.4761 6.80615 13.1705 12.4971C13.6083 16.0897 15.6763 18.4597 18.6199 18.4597C19.903 18.4597 20.9748 18.0823 21.8201 17.3275C22.6654 16.5728 23.073 15.5463 23.073 14.2632Z" fill="#E59500"/>
</svg>
