<svg width="9" height="9" viewBox="0 0 9 9" fill="none" xmlns="http://www.w3.org/2000/svg">
<g clip-path="url(#clip0_374_1529)">
<path d="M1.51758 4.79533C1.51758 3.69662 1.51758 3.14726 2.00501 2.80599C2.49311 2.46472 3.27752 2.46472 4.84703 2.46472C6.41653 2.46472 7.20128 2.46472 7.68871 2.80599C8.17614 3.14726 8.17647 3.69662 8.17647 4.79533C8.17647 5.89405 8.17647 6.44341 7.68871 6.78468C7.20161 7.12595 6.41653 7.12595 4.84703 7.12595C3.27752 7.12595 2.49277 7.12595 2.00501 6.78468C1.51725 6.44341 1.51758 5.89405 1.51758 4.79533Z" stroke="white" stroke-width="0.499417" stroke-linecap="round" stroke-linejoin="round"/>
<path d="M4.3457 4.09884V5.49188C4.34579 5.50981 4.34941 5.52754 4.35635 5.54407C4.36329 5.5606 4.37342 5.5756 4.38616 5.58821C4.39889 5.60082 4.41399 5.61081 4.43059 5.61758C4.44718 5.62436 4.46495 5.62781 4.48288 5.62772C4.50989 5.62805 4.53637 5.62015 4.55879 5.60508L5.61589 4.91455C5.6347 4.90238 5.65018 4.88571 5.66092 4.86605C5.67167 4.84639 5.67735 4.82436 5.67745 4.80196C5.67755 4.77955 5.67207 4.75747 5.66149 4.73772C5.65092 4.71797 5.63559 4.70116 5.61689 4.68882L4.55979 3.9863C4.52957 3.96607 4.49259 3.95857 4.45688 3.96543C4.42116 3.97229 4.38959 3.99295 4.36901 4.02293C4.3537 4.04527 4.34557 4.07175 4.3457 4.09884Z" stroke="white" stroke-width="0.499417" stroke-linecap="round" stroke-linejoin="round"/>
</g>
<defs>
<clipPath id="clip0_374_1529">
<rect width="7.99067" height="7.99067" fill="white" transform="translate(0.851562 0.799927)"/>
</clipPath>
</defs>
</svg>
