<svg width="9" height="9" viewBox="0 0 9 9" fill="none" xmlns="http://www.w3.org/2000/svg">
<g clip-path="url(#clip0_374_1502)">
<path d="M3.6939 4.56977C3.87635 4.49453 4.01619 4.37666 4.10209 4.23683C4.18799 4.09699 4.24159 3.91454 4.24159 3.7211C4.24159 3.53864 4.2093 3.3775 4.15569 3.23799C4.0911 3.09816 4.0052 2.99095 3.88701 2.9157C3.76328 2.83291 3.62483 2.77459 3.47915 2.7439C3.3053 2.71319 3.12896 2.69881 2.95243 2.70095H0.998047V6.78219H2.98506C3.16751 6.78219 3.3503 6.77154 3.51111 6.70694C3.681 6.66627 3.84149 6.59337 3.9839 6.49219C4.12373 6.40629 4.23094 6.27745 4.30585 6.1163C4.3811 5.96581 4.42405 5.78336 4.42405 5.56861C4.42405 5.31091 4.35979 5.08517 4.24159 4.91337C4.11274 4.76288 3.92996 4.64502 3.6939 4.56977ZM1.91098 3.40979H2.75932C2.83457 3.40979 2.90982 3.42045 2.98506 3.42045C3.06031 3.42045 3.13522 3.46373 3.17817 3.49569C3.24239 3.52602 3.29246 3.57991 3.31801 3.64618C3.3503 3.71044 3.36096 3.78569 3.36096 3.89323C3.36096 4.05404 3.31767 4.19388 3.21046 4.26912C3.09 4.33965 2.95286 4.37667 2.81326 4.37633H1.91098V3.40979ZM3.47915 5.82631C3.44686 5.90155 3.40391 5.9445 3.32866 5.98745C3.26407 6.0304 3.18882 6.0627 3.11391 6.0627C3.03866 6.07335 2.95277 6.07335 2.86687 6.07335H1.90033V4.96697H2.88817C3.08161 4.96697 3.23211 5.01026 3.36096 5.10681C3.47915 5.19271 3.54341 5.35386 3.54341 5.55795C3.5221 5.66516 3.5221 5.75106 3.47915 5.82631ZM7.59268 4.85977C7.5494 4.64502 7.45285 4.46223 7.33465 4.30109C7.21334 4.13893 7.05973 4.00368 6.88351 3.90388C6.67886 3.80638 6.45529 3.755 6.22861 3.75339C6.00287 3.75339 5.78812 3.79667 5.62698 3.87159C5.44346 3.94576 5.27852 4.05944 5.14387 4.20453C5.00404 4.34437 4.89683 4.50518 4.82158 4.69862C4.74268 4.89667 4.70256 5.10804 4.70339 5.32123C4.70339 5.54696 4.73568 5.76171 4.81093 5.95515C4.88584 6.14826 4.99338 6.29875 5.11158 6.44924C5.25142 6.58908 5.40124 6.69629 5.59468 6.77154C5.79627 6.85187 6.01161 6.89203 6.22861 6.88973C6.56155 6.88973 6.85121 6.81449 7.08761 6.66399C7.33465 6.51384 7.4958 6.2558 7.61399 5.8909H6.90482C6.87286 5.9768 6.79761 6.07335 6.6904 6.1486C6.58286 6.22384 6.4327 6.26679 6.27156 6.26679C6.04582 6.26679 5.86337 6.2022 5.74551 6.084C5.62698 5.96581 5.55173 5.74041 5.55173 5.50401H7.65694C7.65694 5.27861 7.64662 5.05287 7.59268 4.85977ZM5.50845 4.9996C5.50845 4.92403 5.54074 4.84878 5.56239 4.78452C5.59435 4.70928 5.62664 4.63403 5.68025 4.58043C5.74484 4.51583 5.83074 4.45158 5.91664 4.40863C6.00254 4.36534 6.10975 4.36534 6.20663 4.36534C6.39974 4.36534 6.57187 4.42994 6.65777 4.52682C6.74367 4.63403 6.81892 4.78452 6.84023 4.9996H5.50845ZM7.00171 2.98029H5.33698V3.38815H7.00171V2.98029Z" fill="white"/>
</g>
<defs>
<clipPath id="clip0_374_1502">
<rect width="7.99067" height="7.99067" fill="white" transform="translate(0.332031 0.799927)"/>
</clipPath>
</defs>
</svg>
